<?xml version="1.0" standalone="no"?>
<!DOCTYPE svg PUBLIC "-//W3C//DTD SVG 20010904//EN"
 "http://www.w3.org/TR/2001/REC-SVG-20010904/DTD/svg10.dtd">
<svg version="1.0" xmlns="http://www.w3.org/2000/svg"
 width="960.000000pt" height="480.000000pt" viewBox="0 0 960.000000 480.000000"
 preserveAspectRatio="xMidYMid meet">

<g transform="translate(0.000000,480.000000) scale(0.100000,-0.100000)"
fill="#000000" stroke="none">
<path d="M1600 2400 l0 -1850 230 0 230 0 0 1850 0 1850 -230 0 -230 0 0
-1850z"/>
<path d="M7540 2400 l0 -1850 230 0 230 0 0 1850 0 1850 -230 0 -230 0 0
-1850z"/>
<path d="M1010 2400 l0 -1470 230 0 230 0 0 1470 0 1470 -230 0 -230 0 0
-1470z"/>
<path d="M8130 2400 l0 -1470 230 0 230 0 0 1470 0 1470 -230 0 -230 0 0
-1470z"/>
<path d="M420 2400 l0 -1090 230 0 230 0 0 1090 0 1090 -230 0 -230 0 0 -1090z"/>
<path d="M8720 2400 l0 -1090 230 0 230 0 0 1090 0 1090 -230 0 -230 0 0
-1090z"/>
<path d="M0 2400 l0 -200 150 0 150 0 0 200 0 200 -150 0 -150 0 0 -200z"/>
<path d="M2190 2400 l0 -200 2610 0 2610 0 0 200 0 200 -2610 0 -2610 0 0
-200z"/>
<path d="M9300 2400 l0 -200 150 0 150 0 0 200 0 200 -150 0 -150 0 0 -200z"/>
</g>
</svg>
